<svg width="228" height="112" viewBox="0 0 228 112" fill="none" xmlns="http://www.w3.org/2000/svg">
<g clip-path="url(#clip0_176_30)">
<path d="M11.4286 80.2857L18.5714 86.5714L23.5 90L38 87L45 83L47.1429 75.1429L53.4286 72.5714L60.2857 70.2857L66.5714 68.2857L71.1429 67.1429C73.0474 66.476 76.8571 65.2 76.8571 65.4286C76.8571 65.6571 81.4286 64.3811 83.7143 63.7143L90.2857 62.5714L96.5714 61.4286L98.5714 61.1429H100.286L106.286 60.2857H114.571H119.714L126.857 60.5714L131.429 61.4286L138.286 62.2857L144.286 63.4286L159.143 67.4286L170.286 71.1429L181.714 75.1429L188.286 78L192.857 79.7143L196 81.4286L200 84.5L195 89.5L207.5 88.5L210 86.5L216.286 80L221.714 74L224.286 68.5714L226.286 63.1429L227.143 57.4286V52.8571L223.429 41.7143L220 36.2857L209.429 25.7143L199.143 19.1429L187.714 13.7143L175.714 9.14285L164.286 5.99999L148.286 2.57142L137.429 1.42856L123.143 0.285708L111.429 -5.72205e-06L95.5 -6.5C93.024 -6.30972 85.5714 -4.92857 85 -5C84.4286 -5.07143 69.3572 0.40457 66.5 0.5L49 3L45 6.49999L35.5 12.5L22 19.5L11 27.5L5.5 33.5L1.5 41.5L0.571429 50.5714L0 57.1429L1.14286 62.5714L2.85714 68.2857L7.42857 75.1429L11.4286 80.2857Z" fill="#F8C908"/>
<path d="M206.857 53.9999C219.143 102 148.489 110.857 126.571 110.857C104.335 113.075 15.7142 100.571 39.7188 47.265C63.7233 -6.04065 130.252 1.928 140.5 4.5C150.749 7.072 194.571 5.99993 206.857 53.9999Z" fill="#FFE501"/>
<path d="M165.979 51.2223C170.248 88.4126 146.782 82.7298 130.571 82.7298C114.124 84.2046 70.5714 93.1429 82.836 47.5943C95.1 2.04572 122.92 4.79028 130.5 6.5C138.081 8.21028 161.71 14.0326 165.979 51.2223Z" fill="#FFFF42"/>
</g>
<defs>
<clipPath id="clip0_176_30">
<rect width="228" height="112" fill="white"/>
</clipPath>
</defs>
</svg>
