<svg width="69" height="64" viewBox="0 0 69 64" fill="none" xmlns="http://www.w3.org/2000/svg">
<path d="M17.07 12.2101C17.07 12.2101 24.2611 9.32144 54.07 19.7101C83.8788 30.0987 58.8526 18.041 56.07 17.2101L56.1561 16.3961L57.0012 14.1106L51.3673 11.825L42.9163 8.52363L35.5921 6.49201L29.1131 5.47621L23.4791 4.71436L22.0706 5.47621L17.8451 9.79338L17.07 12.2101Z" fill="#D8A301"/>
<path d="M38 58L53.1429 63.7143L50.2857 57.7143L47.7143 48.5714L42.2857 46.8571L35.4286 44.2857L29.4286 42.2857L24.8571 40.5714L21.1429 38.8571L16 36.2857L13.1429 34L11.4286 32.2857L10.8571 31.4286L10.5714 30.8571L10 30.2857L10.2857 26.8571L12 21.7143L14 16.8571L17.7143 10.2857L21.1429 6.28571L21.4286 5.42857H23.7143H25.1429L27.7143 5.71429L30.5714 6.28571L33.7143 6.85714L37.7143 8.28571L42.2857 9.42857L49.4286 12L53.4286 14L57.4286 15.7143L60 12.2857L52.8571 8.28571L46.5714 5.42857L40.8571 3.42857L32.5714 1.14286L26.8571 0.285714L21.4286 0L18 0.285714L14.8571 0.857143L12.5714 3.14286L10 6.28571L7.14286 10.8571L4.85714 15.1429L2.85714 19.7143L1.14286 23.7143L0 28.2857V32.2857L0.571429 36L2.28571 38.5714L5.71429 41.7143L12.2857 46.2857L17.7143 49.1429L25.7143 53.1429L38 58Z" fill="#F8C908"/>
<path d="M38 58L53.1429 63.7143L50.2857 57.7143L47.7143 48.5714L42.2857 46.8571L35.4286 44.2857L29.4286 42.2857L24.8571 40.5714L21.1429 38.8571L16 36.2857L13.1429 34L11.4286 32.2857L10.8571 31.4286L10.5714 30.8571L10 30.2857L10.2857 26.8571L12 21.7143L14 16.8571L17.7143 10.2857L21.1429 6.28571L21.4286 5.42857H23.7143H25.1429L27.7143 5.71429L30.5714 6.28571L33.7143 6.85714L37.7143 8.28571L42.2857 9.42857L49.4286 12L53.4286 14L57.4286 15.7143L60 12.2857L52.8571 8.28571L46.5714 5.42857L40.8571 3.42857L32.5714 1.14286L26.8571 0.285714L21.4286 0L18 0.285714L14.8571 0.857143L12.5714 3.14286L10 6.28571L7.14286 10.8571L4.85714 15.1429L2.85714 19.7143L1.14286 23.7143L0 28.2857V32.2857L0.571429 36L2.28571 38.5714L5.71429 41.7143L12.2857 46.2857L17.7143 49.1429L25.7143 53.1429L38 58Z" fill="#F8C908"/>
<path d="M44.5714 54.7634C38 58.7634 33.144 55.8468 25.147 51.9062C19.0488 48.9011 7.7143 43.9062 4.00864 39.6205C0.302984 35.3348 1.14276 36.192 0.571442 31.6205C1.14276 25.6205 3.32607 17.3005 7.72219 10.7634C11.2936 5.45253 13.4353 1.33482 17.7201 2.47767C21.7143 5.0491 16.8631 6.76338 11.15 19.9057C10.8679 21.8811 6.01453 29.6205 10.5787 33.6205C15.1429 37.6205 13.4353 36.192 16.8631 38.192C20.2909 40.192 21.834 40.7045 26.004 42.4771C34.2292 45.9742 51.1429 50.7634 44.5714 54.7634Z" fill="#FFE501"/>
<path d="M9.14285 32.8572C7.14285 30.5715 5.42856 27.4286 3.71428 28.0001C1.99999 28.5715 2.2857 34.5715 3.99999 37.1429C5.71428 39.7143 12.2262 42.5715 13.4286 41.1429C14.631 39.7143 11.1428 35.1429 9.14285 32.8572Z" fill="#FFFF42"/>
<path d="M7.24589 24.0273C7.24589 23.7416 7.53161 21.4559 6.96018 21.1702C6.38875 20.8845 4.96018 22.8845 4.67446 24.0273C4.38875 25.1702 4.67446 26.0273 5.81732 26.313C6.96018 26.5988 7.24589 24.313 7.24589 24.0273Z" fill="#FFFF42"/>
</svg>
