<svg width="517" height="550" viewBox="0 0 517 550" fill="none" xmlns="http://www.w3.org/2000/svg">
<path d="M136.651 386.852L9.14796 161.579L376.79 159.292L507.723 387.424L136.651 386.852Z" fill="#9CF5A6"/>
<path d="M376.79 161.579L360.781 183.878L479.707 386.281H508.295L376.79 161.579Z" fill="#78AF7E"/>
<path d="M23.4421 184.449L12.5786 162.722L376.79 162.151L361.353 184.449H23.4421Z" fill="#8BCC92"/>
<path d="M516.3 390.855H132.648L0 156.433H380.793L516.3 390.855ZM13.4404 163.366L13.8574 164.111L137.358 384.238L137.501 384.494H504.591L504.153 383.742L376.079 163.615L375.935 163.366H13.4404Z" fill="#CCFFD1"/>
<path d="M7.43289 189.825L0 156.433L132.648 390.855L134.935 416.012L7.43289 189.825Z" fill="#709A75"/>
<path d="M507.992 416.012H134.935L132.648 390.855H516.3L507.992 416.012Z" fill="#90C996"/>
<path d="M424.454 334.195L422.285 337.907L427.083 338.219L429.251 334.507L424.454 334.195Z" fill="#825652"/>
<path d="M422.286 337.907L312.804 125.091L319.859 120.224L424.454 334.195L422.286 337.907Z" fill="#A46A64"/>
<path d="M424.454 334.195L319.859 120.224L328.497 120.813L429.251 334.507L424.454 334.195Z" fill="#B78883"/>
<path d="M418 335L416 339L421 339L423 335L418 335Z" fill="#825652"/>
<path d="M416 339L288 125.5L294.994 119.972L418 335L416 339Z" fill="#A46A64"/>
<path d="M418 335L294.994 119.972L304 120L423 335L418 335Z" fill="#B78883"/>
</svg>
